<svg xmlns="http://www.w3.org/2000/svg" viewBox="0 0 512 512"><path d="M512 52.966V476.69c0 19.501-15.809 35.31-35.31 35.31H35.31C15.809 512 0 496.191 0 476.69V52.966h512z" fill="#d1d4d1"/><circle cx="256" cy="291.31" r="167.724" fill="#3b97d3"/><path d="M512 35.31v35.31H0V35.31C0 15.809 15.809 0 35.31 0h441.38C496.191 0 512 15.809 512 35.31z" fill="#955ba5"/><path d="M52.966 26.483h-8.828a8.828 8.828 0 0 0 0 17.656h8.828a8.828 8.828 0 0 0 0-17.656z" fill="#ff5364"/><path d="M91.63 27.189a8.082 8.082 0 0 0-6.709 0 10.198 10.198 0 0 0-2.913 1.854 8.95 8.95 0 0 0 0 12.535 10.212 10.212 0 0 0 2.913 1.854 8.325 8.325 0 0 0 6.709 0 10.198 10.198 0 0 0 2.913-1.854 8.95 8.95 0 0 0 0-12.535 10.185 10.185 0 0 0-2.913-1.854z" fill="#f0c419"/><path d="M117.319 29.043a10.212 10.212 0 0 0-1.854 2.913 8.317 8.317 0 0 0 0 6.709 10.198 10.198 0 0 0 1.854 2.913 8.95 8.95 0 0 0 12.535 0 10.212 10.212 0 0 0 1.854-2.913 7.385 7.385 0 0 0 .706-3.354 8.827 8.827 0 0 0-15.095-6.268z" fill="#65ddb9"/><path d="M467.862 26.483H167.724a8.828 8.828 0 0 0 0 17.656h300.138a8.828 8.828 0 0 0 0-17.656z" fill="#804169"/><path d="M386.092 410.253c61.947-67.197 61.947-170.689 0-237.886a8.594 8.594 0 0 0-.759-1.289 7.91 7.91 0 0 0-1.315-.989 175.76 175.76 0 0 0-256 0 7.828 7.828 0 0 0-1.315.989c-.29.407-.544.838-.759 1.289-61.947 67.197-61.947 170.689 0 237.886.215.451.469.882.759 1.289.402.37.839.698 1.306.98a175.758 175.758 0 0 0 256.124-.079 8.196 8.196 0 0 0 1.236-.883c.278-.414.52-.851.723-1.307zM97.554 300.138h65.986a314.808 314.808 0 0 0 9.242 69.738 179.027 179.027 0 0 0-38.365 23.508 158.015 158.015 0 0 1-36.863-93.246zm36.864-110.919a179.052 179.052 0 0 0 38.365 23.526 314.749 314.749 0 0 0-9.242 69.738H97.554a158.014 158.014 0 0 1 36.864-93.264zm280.028 93.264H348.46a314.749 314.749 0 0 0-9.242-69.738 179.027 179.027 0 0 0 38.365-23.508 158.015 158.015 0 0 1 36.863 93.246zm-167.274-70.268a187.495 187.495 0 0 1-52.833-10.063c12.058-36.829 31.197-62.844 52.833-68.511v78.574zm0 17.655v52.612h-65.986a298.793 298.793 0 0 1 8.289-63.179 204.144 204.144 0 0 0 57.697 10.575v-.008zm0 70.268v52.604a204.154 204.154 0 0 0-57.697 10.593 298.83 298.83 0 0 1-8.289-63.197h65.986zm0 70.268v78.566c-21.636-5.667-40.775-31.682-52.833-68.511a187.427 187.427 0 0 1 52.833-10.055zm17.656 0a187.495 187.495 0 0 1 52.833 10.063c-12.059 36.829-31.197 62.844-52.833 68.511v-78.574zm0-17.656v-52.612h65.986a298.793 298.793 0 0 1-8.289 63.179 204.144 204.144 0 0 0-57.697-10.575v.008zm0-70.267v-52.604a204.154 204.154 0 0 0 57.697-10.593 298.83 298.83 0 0 1 8.289 63.197h-65.986zm0-70.268V133.65c21.636 5.667 40.775 31.682 52.833 68.511a187.461 187.461 0 0 1-52.833 10.054zm69.384-16.657a162.225 162.225 0 0 0-30.058-55.614 158.898 158.898 0 0 1 61.246 36.449 161.588 161.588 0 0 1-31.188 19.165zm-156.424 0a161.628 161.628 0 0 1-31.188-19.191 158.886 158.886 0 0 1 61.246-36.449 162.205 162.205 0 0 0-30.058 55.64zm0 191.505a162.225 162.225 0 0 0 30.058 55.614 158.898 158.898 0 0 1-61.246-36.449 161.588 161.588 0 0 1 31.188-19.165zm156.424 0a161.628 161.628 0 0 1 31.188 19.191 158.886 158.886 0 0 1-61.246 36.449 162.205 162.205 0 0 0 30.058-55.64zm5.006-17.169a314.774 314.774 0 0 0 9.242-69.756h65.986a158.008 158.008 0 0 1-36.864 93.263 179.048 179.048 0 0 0-38.365-23.525v.018z" fill="#2980ba"/></svg>